<?xml version="1.0" standalone="no"?>
<!DOCTYPE svg PUBLIC "-//W3C//DTD SVG 20010904//EN"
 "http://www.w3.org/TR/2001/REC-SVG-20010904/DTD/svg10.dtd">
<svg version="1.0" xmlns="http://www.w3.org/2000/svg"
 width="16.000000pt" height="16.000000pt" viewBox="0 0 16.000000 16.000000"
 preserveAspectRatio="xMidYMid meet">
<metadata>
Created by potrace 1.11, written by Peter Selinger 2001-2013
</metadata>
<g transform="translate(0.000000,16.000000) scale(0.001600,-0.001600)"
fill="#000000" stroke="none">
<path d="M3360 9687 c0 -22 129 -380 139 -386 5 -4 12 -24 16 -46 9 -49 94
-295 108 -313 5 -7 10 -20 11 -30 2 -31 100 -301 108 -296 4 2 10 -12 13 -33
9 -54 155 -477 168 -485 6 -4 9 -10 5 -13 -3 -4 14 -63 39 -133 98 -276 166
-470 183 -522 42 -126 90 -257 104 -285 9 -16 16 -37 16 -45 0 -17 91 -274
108 -307 28 -52 18 -66 -80 -107 -97 -40 -262 -128 -286 -152 -7 -8 -17 -14
-21 -14 -15 0 -156 -111 -238 -186 -45 -41 -108 -107 -139 -145 -32 -38 -62
-69 -67 -69 -5 0 -54 35 -110 78 -56 42 -114 86 -129 97 -15 11 -82 63 -150
115 -68 52 -131 100 -140 105 -9 6 -47 35 -84 66 -66 53 -206 161 -266 204
-15 11 -110 83 -210 161 -101 77 -191 143 -200 147 -10 3 -18 10 -18 15 0 5
-42 37 -92 73 -104 71 -122 85 -152 114 -22 22 -114 94 -316 247 -114 86 -349
265 -413 313 -14 11 -71 55 -126 98 l-101 78 0 -48 c0 -26 -7 -259 -15 -518
-8 -258 -17 -600 -21 -760 -4 -159 -7 -303 -8 -319 -1 -27 3 -30 69 -53 39
-13 91 -28 117 -33 27 -5 67 -18 90 -29 54 -24 447 -151 468 -151 9 0 20 -4
26 -9 13 -12 195 -71 204 -66 4 2 13 25 20 50 7 25 16 48 21 50 8 5 216 -56
274 -80 17 -7 107 -37 200 -65 94 -29 197 -63 230 -75 33 -13 110 -37 170 -55
103 -31 175 -57 175 -64 0 -2 -7 -23 -16 -47 -8 -24 -19 -64 -24 -89 -5 -25
-14 -58 -21 -75 -7 -16 -13 -32 -14 -35 -13 -51 -28 -60 -63 -40 -27 16 -387
130 -410 130 -11 0 -22 3 -24 8 -4 9 -440 152 -466 152 -10 0 -22 4 -28 9 -5
5 -26 14 -46 20 l-37 12 15 47 c7 26 14 50 14 54 0 8 -149 58 -176 58 -11 0
-24 4 -30 9 -11 11 -440 151 -463 151 -9 0 -21 4 -27 9 -15 14 -264 93 -277
88 -14 -5 -197 -271 -197 -286 0 -5 -4 -11 -8 -13 -8 -3 -48 -60 -200 -284
-23 -34 -42 -66 -42 -71 0 -6 -9 -18 -20 -28 -11 -10 -20 -23 -20 -29 0 -5
-11 -21 -24 -35 -13 -15 -71 -96 -128 -181 -58 -85 -117 -173 -132 -195 -16
-22 -32 -49 -37 -60 -5 -11 -38 -58 -73 -105 -35 -47 -62 -87 -60 -88 1 -2
204 1 451 7 246 6 540 14 653 16 113 3 279 7 370 10 479 14 1374 35 1532 35
l136 0 7 -67 c17 -189 43 -315 104 -500 34 -103 123 -289 181 -375 23 -35 33
-58 26 -61 -12 -5 -273 -184 -296 -204 -8 -7 -64 -46 -125 -87 -213 -142 -290
-197 -298 -211 -4 -8 -14 -15 -21 -15 -11 0 -203 -127 -236 -156 -8 -8 -58
-42 -110 -77 -52 -34 -153 -103 -224 -152 -204 -142 -404 -280 -491 -339 -81
-54 -270 -186 -315 -219 -14 -10 -95 -65 -180 -123 -85 -58 -159 -112 -165
-118 -5 -7 -26 -20 -45 -30 -41 -20 -75 -44 -69 -50 2 -2 51 -21 109 -41 120
-43 248 -90 270 -98 8 -3 87 -32 175 -63 88 -32 194 -70 235 -84 149 -54 397
-143 500 -180 58 -20 145 -52 194 -69 48 -18 89 -31 90 -29 1 2 51 70 110 152
60 82 120 166 135 186 14 21 79 110 144 198 64 88 117 165 117 170 0 5 13 23
29 38 16 16 37 43 46 59 15 30 15 30 -24 65 l-39 35 114 155 c62 85 114 161
114 168 0 6 4 12 9 12 10 0 227 296 254 347 9 18 21 33 26 33 4 0 14 12 22 27
7 16 27 44 44 63 17 19 38 46 47 59 15 22 19 22 47 10 17 -8 31 -17 31 -20 0
-3 43 -37 95 -74 52 -38 95 -73 95 -78 0 -5 -52 -80 -115 -167 -63 -86 -115
-163 -115 -169 0 -6 -4 -11 -8 -11 -11 0 -282 -374 -282 -389 0 -6 -4 -11 -8
-11 -5 0 -31 -31 -58 -70 -27 -38 -53 -69 -57 -70 -5 0 -29 14 -53 32 -24 17
-46 29 -47 27 -26 -30 -137 -189 -137 -194 0 -4 -15 -25 -32 -45 -18 -21 -42
-52 -53 -68 -11 -17 -46 -66 -79 -108 -32 -43 -68 -94 -79 -113 -11 -20 -28
-43 -37 -51 -21 -19 -150 -197 -150 -207 0 -3 -9 -16 -20 -28 l-19 -20 140
-180 c189 -244 242 -312 335 -434 43 -58 93 -119 109 -137 17 -18 35 -41 42
-52 17 -28 262 -345 276 -357 7 -5 21 -23 31 -40 11 -16 35 -50 55 -73 l35
-44 17 59 c9 32 47 156 83 275 36 120 63 224 60 233 -3 8 -2 15 4 15 5 0 13
17 17 38 4 20 10 42 15 47 12 15 73 227 72 250 -1 11 3 22 7 25 11 7 114 350
113 375 -1 11 3 22 7 25 5 3 18 37 29 75 11 39 39 133 62 210 24 77 46 156 51
175 4 19 38 132 74 250 62 201 71 235 74 284 0 11 4 16 8 13 7 -7 77 216 89
282 4 20 10 41 14 46 4 6 29 83 55 173 45 150 50 163 69 157 189 -54 296 -68
506 -68 210 0 317 14 505 68 19 6 25 -6 63 -137 24 -79 49 -159 57 -178 7 -19
16 -48 20 -65 13 -66 89 -310 97 -313 4 -2 8 -14 8 -27 0 -13 30 -122 66 -242
37 -120 70 -231 74 -248 4 -16 27 -93 50 -170 23 -77 51 -171 62 -210 11 -38
24 -74 29 -79 5 -6 9 -19 9 -29 0 -26 97 -346 109 -361 6 -7 10 -21 9 -31 -2
-34 90 -327 104 -333 4 -2 5 -9 2 -16 -3 -7 25 -111 62 -232 36 -120 73 -243
81 -271 9 -29 19 -53 23 -53 8 0 100 115 100 126 0 4 6 12 14 18 17 13 265
332 281 361 6 11 24 34 41 52 17 17 64 76 105 129 92 122 148 194 320 415 74
96 139 180 143 187 4 7 -3 25 -19 45 -14 17 -44 59 -65 92 -21 33 -55 78 -74
100 -20 22 -36 43 -36 48 0 11 -157 226 -193 264 -17 18 -28 33 -24 33 4 0 0
8 -8 18 -9 9 -52 69 -97 132 -44 63 -82 117 -84 119 -2 2 -24 -10 -48 -27 -24
-18 -48 -32 -53 -32 -4 0 -23 23 -42 51 -19 27 -45 60 -57 72 -13 12 -24 26
-24 30 0 14 -272 387 -282 387 -4 0 -8 5 -8 11 0 6 -52 83 -116 170 -63 88
-114 163 -112 168 3 10 216 170 235 178 14 6 67 -49 92 -97 11 -19 37 -56 60
-82 23 -25 41 -49 41 -53 0 -8 195 -281 222 -310 10 -11 33 -42 51 -70 18 -27
69 -100 114 -161 l81 -111 -41 -36 -41 -36 38 -56 c21 -30 42 -55 46 -55 3 0
13 -12 21 -27 20 -39 197 -282 231 -317 15 -17 28 -34 28 -39 0 -7 193 -281
237 -336 2 -3 45 10 96 29 50 18 139 49 197 70 107 38 364 130 500 180 41 14
147 52 235 84 88 31 175 63 193 71 18 8 37 15 43 15 10 0 174 61 219 82 14 6
28 11 32 10 4 -1 21 4 39 12 l31 13 -33 24 c-19 13 -41 29 -50 34 -9 6 -75 51
-145 101 -71 50 -154 108 -184 128 -30 20 -100 68 -155 107 -55 39 -143 100
-195 135 -126 86 -347 238 -506 349 -71 49 -172 117 -224 152 -52 34 -117 79
-143 99 -83 63 -171 121 -194 128 -13 4 -23 11 -23 16 0 5 -39 36 -87 69 -148
100 -323 221 -474 326 -79 55 -152 103 -161 107 -22 9 -22 12 -2 33 23 23 103
166 152 272 76 165 139 419 158 636 l6 67 136 0 c158 0 1035 -20 1532 -35 91
-3 257 -7 370 -10 113 -2 407 -10 653 -16 247 -6 450 -9 451 -7 2 1 -25 41
-60 88 -35 47 -74 105 -88 130 -14 25 -34 56 -45 70 -11 14 -64 90 -117 170
-53 80 -107 156 -119 170 -12 14 -25 32 -29 40 -13 30 -176 274 -243 363 -24
31 -43 60 -43 63 0 12 -186 277 -197 281 -7 3 -73 -16 -146 -41 -72 -25 -142
-48 -154 -51 -51 -12 -459 -148 -467 -156 -6 -5 -19 -9 -30 -9 -30 0 -176 -50
-176 -60 0 -5 5 -21 11 -37 22 -52 18 -61 -30 -79 -25 -10 -54 -19 -64 -21
-28 -5 -451 -144 -462 -152 -5 -4 -19 -8 -30 -9 -11 -1 -108 -31 -215 -67
-107 -37 -205 -69 -216 -72 -19 -4 -25 3 -43 51 -12 31 -21 65 -21 75 0 9 -11
51 -25 91 -14 40 -25 75 -25 77 0 5 89 43 102 43 7 0 74 20 148 45 74 25 158
51 185 59 28 8 124 40 215 70 91 31 173 58 182 60 9 3 60 18 113 35 53 17 100
29 104 26 5 -2 14 -25 21 -50 7 -25 16 -48 20 -50 9 -5 191 54 205 66 5 5 16
9 25 9 20 0 451 139 465 150 13 10 79 31 115 37 16 2 60 14 97 27 64 22 68 25
67 52 -1 16 -4 151 -8 299 -11 496 -38 1330 -42 1334 -4 4 -141 -96 -179 -131
-11 -10 -81 -64 -156 -121 -75 -56 -210 -158 -300 -227 -90 -68 -194 -147
-231 -175 -37 -27 -67 -55 -67 -62 -1 -6 -9 -14 -18 -17 -10 -3 -30 -16 -45
-28 -14 -13 -52 -41 -84 -63 -31 -22 -74 -55 -94 -72 -21 -18 -41 -33 -44 -33
-4 0 -85 -59 -179 -132 -95 -72 -228 -174 -297 -227 -69 -52 -159 -121 -200
-153 -72 -57 -313 -242 -368 -283 -15 -11 -73 -55 -129 -97 -56 -43 -106 -78
-111 -78 -5 0 -22 17 -38 38 -74 98 -357 352 -392 352 -5 0 -15 7 -22 15 -19
23 -194 118 -297 161 -83 35 -93 41 -93 64 0 14 4 30 9 36 11 12 121 325 121
345 0 8 4 19 9 25 5 5 21 43 35 84 14 41 46 134 72 205 25 72 48 139 51 150 3
11 18 54 33 95 72 190 134 377 132 398 -1 13 2 21 6 18 8 -5 149 386 158 439
7 45 16 69 25 76 11 6 100 254 104 286 1 13 7 28 12 35 17 22 113 304 113 332
0 14 4 26 9 26 5 0 16 19 24 43 8 23 40 113 71 201 53 151 55 158 33 153 -23
-6 -130 -37 -282 -82 -49 -14 -97 -28 -105 -30 -16 -4 -197 -56 -365 -106 -55
-17 -138 -41 -185 -53 -141 -39 -261 -75 -273 -83 -7 -4 -21 -9 -32 -9 -18 -2
-126 -32 -287 -80 l-58 -17 0 -518 0 -519 60 0 60 0 0 -555 0 -555 -160 0
-160 0 0 555 0 555 55 0 55 0 0 520 0 519 -52 16 c-114 36 -264 75 -285 75
-12 0 -23 4 -25 9 -3 8 -117 44 -263 82 -38 10 -122 34 -185 53 -251 75 -363
106 -368 101 -3 -3 -10 0 -17 5 -11 9 -54 23 -275 87 -47 13 -93 27 -102 30
-12 3 -18 0 -18 -10z m1910 -3335 c52 -10 102 -21 110 -25 8 -4 49 -18 90 -33
74 -26 290 -131 301 -146 3 -4 29 -26 59 -48 46 -35 240 -217 240 -226 0 -1
25 -37 55 -80 49 -68 138 -234 172 -319 25 -63 63 -239 74 -342 14 -129 6
-269 -22 -408 -12 -55 -23 -111 -25 -124 -3 -13 -11 -36 -18 -50 -8 -14 -22
-52 -31 -84 -9 -31 -22 -63 -29 -69 -6 -7 -30 -44 -51 -82 -22 -38 -47 -81
-55 -96 -55 -95 -246 -280 -378 -366 -48 -31 -99 -65 -114 -75 -15 -11 -31
-19 -36 -19 -5 0 -34 -11 -63 -24 -134 -59 -263 -92 -422 -107 -230 -22 -468
15 -674 107 -31 13 -62 24 -69 24 -8 0 -14 4 -14 8 0 5 -12 14 -27 21 -56 25
-193 122 -265 188 -106 97 -196 205 -253 303 -27 47 -55 91 -62 98 -6 6 -15
22 -18 35 -4 12 -21 63 -40 112 -67 180 -96 418 -76 608 12 112 51 283 79 352
42 100 117 239 167 310 30 42 55 78 55 79 0 10 196 193 255 238 82 62 238 145
345 182 41 15 84 30 95 35 11 5 67 16 125 25 58 9 116 18 130 20 53 9 299 -5
390 -22z"/>
</g>
</svg>
